<?xml version="1.0" encoding="UTF-8" standalone="no"?><svg xmlns="http://www.w3.org/2000/svg" xmlns:xlink="http://www.w3.org/1999/xlink" contentScriptType="application/ecmascript" contentStyleType="text/css" height="777px" preserveAspectRatio="none" style="width:1328px;height:777px;" version="1.1" viewBox="0 0 1328 777" width="1328px" zoomAndPan="magnify"><defs><filter height="300%" id="f18xi36wzq6zdc" width="300%" x="-1" y="-1"><feGaussianBlur result="blurOut" stdDeviation="2.0"/><feColorMatrix in="blurOut" result="blurOut2" type="matrix" values="0 0 0 0 0 0 0 0 0 0 0 0 0 0 0 0 0 0 .4 0"/><feOffset dx="4.0" dy="4.0" in="blurOut2" result="blurOut3"/><feBlend in="SourceGraphic" in2="blurOut3" mode="normal"/></filter></defs><g><!--MD5=[d4a9e5337e4f02e233337f805315d0b2]
cluster test_external--><polygon fill="#DDDDDD" filter="url(#f18xi36wzq6zdc)" points="712.5,682,824.5,682,831.5,704.2969,886.5,704.2969,886.5,765,712.5,765,712.5,682" style="stroke: #000000; stroke-width: 1.5;"/><line style="stroke: #000000; stroke-width: 1.5;" x1="712.5" x2="831.5" y1="704.2969" y2="704.2969"/><text fill="#000000" font-family="sans-serif" font-size="14" font-weight="bold" lengthAdjust="spacingAndGlyphs" textLength="106" x="716.5" y="696.9951">test_external</text><!--MD5=[c346f6553bf1feb4436d50721af4dc21]
cluster test_helper--><polygon fill="#DDDDDD" filter="url(#f18xi36wzq6zdc)" points="574.5,174,671.5,174,678.5,196.2969,1306.5,196.2969,1306.5,635,574.5,635,574.5,174" style="stroke: #000000; stroke-width: 1.5;"/><line style="stroke: #000000; stroke-width: 1.5;" x1="574.5" x2="678.5" y1="196.2969" y2="196.2969"/><text fill="#000000" font-family="sans-serif" font-size="14" font-weight="bold" lengthAdjust="spacingAndGlyphs" textLength="91" x="578.5" y="188.9951">test_helper</text><!--MD5=[408a9db973c348ecb0b52d1e5997f673]
cluster test_main--><polygon fill="#DDDDDD" filter="url(#f18xi36wzq6zdc)" points="146.5,6,230.5,6,237.5,28.2969,566.5,28.2969,566.5,484,146.5,484,146.5,6" style="stroke: #000000; stroke-width: 1.5;"/><line style="stroke: #000000; stroke-width: 1.5;" x1="146.5" x2="237.5" y1="28.2969" y2="28.2969"/><text fill="#000000" font-family="sans-serif" font-size="14" font-weight="bold" lengthAdjust="spacingAndGlyphs" textLength="78" x="150.5" y="20.9951">test_main</text><!--MD5=[21db9795f28e554556c7756712614ec1]
class ExternalDependency--><rect fill="#FEFECE" filter="url(#f18xi36wzq6zdc)" height="48" id="ExternalDependency" style="stroke: #A80036; stroke-width: 1.5;" width="158" x="720.5" y="709"/><ellipse cx="735.5" cy="725" fill="#ADD1B2" rx="11" ry="11" style="stroke: #A80036; stroke-width: 1.0;"/><path d="M738.4688,730.6406 Q737.8906,730.9375 737.25,731.0859 Q736.6094,731.2344 735.9063,731.2344 Q733.4063,731.2344 732.0859,729.5859 Q730.7656,727.9375 730.7656,724.8125 Q730.7656,721.6875 732.0859,720.0313 Q733.4063,718.375 735.9063,718.375 Q736.6094,718.375 737.2578,718.5313 Q737.9063,718.6875 738.4688,718.9844 L738.4688,721.7031 Q737.8438,721.125 737.25,720.8516 Q736.6563,720.5781 736.0313,720.5781 Q734.6875,720.5781 734,721.6484 Q733.3125,722.7188 733.3125,724.8125 Q733.3125,726.9063 734,727.9766 Q734.6875,729.0469 736.0313,729.0469 Q736.6563,729.0469 737.25,728.7734 Q737.8438,728.5 738.4688,727.9219 L738.4688,730.6406 Z "/><text fill="#000000" font-family="sans-serif" font-size="12" lengthAdjust="spacingAndGlyphs" textLength="126" x="749.5" y="729.1543">ExternalDependency</text><line style="stroke: #A80036; stroke-width: 1.5;" x1="721.5" x2="877.5" y1="741" y2="741"/><line style="stroke: #A80036; stroke-width: 1.5;" x1="721.5" x2="877.5" y1="749" y2="749"/><!--MD5=[1ca65489d9a717d3ce67fecfdea6e3d1]
class AggregationDependency--><rect fill="#FEFECE" filter="url(#f18xi36wzq6zdc)" height="48" id="AggregationDependency" style="stroke: #A80036; stroke-width: 1.5;" width="182" x="582.5" y="566"/><ellipse cx="597.5" cy="582" fill="#ADD1B2" rx="11" ry="11" style="stroke: #A80036; stroke-width: 1.0;"/><path d="M600.4688,587.6406 Q599.8906,587.9375 599.25,588.0859 Q598.6094,588.2344 597.9063,588.2344 Q595.4063,588.2344 594.0859,586.5859 Q592.7656,584.9375 592.7656,581.8125 Q592.7656,578.6875 594.0859,577.0313 Q595.4063,575.375 597.9063,575.375 Q598.6094,575.375 599.2578,575.5313 Q599.9063,575.6875 600.4688,575.9844 L600.4688,578.7031 Q599.8438,578.125 599.25,577.8516 Q598.6563,577.5781 598.0313,577.5781 Q596.6875,577.5781 596,578.6484 Q595.3125,579.7188 595.3125,581.8125 Q595.3125,583.9063 596,584.9766 Q596.6875,586.0469 598.0313,586.0469 Q598.6563,586.0469 599.25,585.7734 Q599.8438,585.5 600.4688,584.9219 L600.4688,587.6406 Z "/><text fill="#000000" font-family="sans-serif" font-size="12" lengthAdjust="spacingAndGlyphs" textLength="150" x="611.5" y="586.1543">AggregationDependency</text><line style="stroke: #A80036; stroke-width: 1.5;" x1="583.5" x2="763.5" y1="598" y2="598"/><line style="stroke: #A80036; stroke-width: 1.5;" x1="583.5" x2="763.5" y1="606" y2="606"/><!--MD5=[74231627164ad4548e42f9bbfe9a84c7]
class CImpl_Helper--><rect fill="#FEFECE" filter="url(#f18xi36wzq6zdc)" height="99.2188" id="CImpl_Helper" style="stroke: #A80036; stroke-width: 1.5;" width="404" x="894.5" y="201"/><ellipse cx="1052.25" cy="217" fill="#ADD1B2" rx="11" ry="11" style="stroke: #A80036; stroke-width: 1.0;"/><path d="M1055.2188,222.6406 Q1054.6406,222.9375 1054,223.0859 Q1053.3594,223.2344 1052.6563,223.2344 Q1050.1563,223.2344 1048.8359,221.5859 Q1047.5156,219.9375 1047.5156,216.8125 Q1047.5156,213.6875 1048.8359,212.0313 Q1050.1563,210.375 1052.6563,210.375 Q1053.3594,210.375 1054.0078,210.5313 Q1054.6563,210.6875 1055.2188,210.9844 L1055.2188,213.7031 Q1054.5938,213.125 1054,212.8516 Q1053.4063,212.5781 1052.7813,212.5781 Q1051.4375,212.5781 1050.75,213.6484 Q1050.0625,214.7188 1050.0625,216.8125 Q1050.0625,218.9063 1050.75,219.9766 Q1051.4375,221.0469 1052.7813,221.0469 Q1053.4063,221.0469 1054,220.7734 Q1054.5938,220.5 1055.2188,219.9219 L1055.2188,222.6406 Z "/><text fill="#000000" font-family="sans-serif" font-size="12" lengthAdjust="spacingAndGlyphs" textLength="80" x="1072.75" y="221.1543">CImpl_Helper</text><line style="stroke: #A80036; stroke-width: 1.5;" x1="895.5" x2="1297.5" y1="233" y2="233"/><line style="stroke: #A80036; stroke-width: 1.5;" x1="895.5" x2="1297.5" y1="241" y2="241"/><ellipse cx="905.5" cy="252" fill="#84BE84" rx="3" ry="3" style="stroke: #038048; stroke-width: 1.0;"/><text fill="#000000" font-family="sans-serif" font-size="11" lengthAdjust="spacingAndGlyphs" textLength="83" x="914.5" y="255.2104">CImpl_Helper()</text><ellipse cx="905.5" cy="264.8047" fill="#84BE84" rx="3" ry="3" style="stroke: #038048; stroke-width: 1.0;"/><text fill="#000000" font-family="sans-serif" font-size="11" lengthAdjust="spacingAndGlyphs" text-decoration="underline" textLength="126" x="914.5" y="268.0151">void myStaticMethod()</text><ellipse cx="905.5" cy="277.6094" fill="#84BE84" rx="3" ry="3" style="stroke: #038048; stroke-width: 1.0;"/><text fill="#000000" font-family="sans-serif" font-size="11" lengthAdjust="spacingAndGlyphs" textLength="378" x="914.5" y="280.8198">virtual void pureVirtFunc(const int&amp; val1, const int&amp; val2) override</text><ellipse cx="905.5" cy="290.4141" fill="#84BE84" rx="3" ry="3" style="stroke: #038048; stroke-width: 1.0;"/><text fill="#000000" font-family="sans-serif" font-size="11" lengthAdjust="spacingAndGlyphs" textLength="173" x="914.5" y="293.6245">virtual void virtFunc() override</text><!--MD5=[9dcd09706d31b125732309d98c04e585]
class CImpl_HelperExtended--><rect fill="#FEFECE" filter="url(#f18xi36wzq6zdc)" height="73.6094" id="CImpl_HelperExtended" style="stroke: #A80036; stroke-width: 1.5;" width="199" x="1017" y="553"/><ellipse cx="1045.05" cy="569" fill="#ADD1B2" rx="11" ry="11" style="stroke: #A80036; stroke-width: 1.0;"/><path d="M1048.0188,574.6406 Q1047.4406,574.9375 1046.8,575.0859 Q1046.1594,575.2344 1045.4563,575.2344 Q1042.9563,575.2344 1041.6359,573.5859 Q1040.3156,571.9375 1040.3156,568.8125 Q1040.3156,565.6875 1041.6359,564.0313 Q1042.9563,562.375 1045.4563,562.375 Q1046.1594,562.375 1046.8078,562.5313 Q1047.4563,562.6875 1048.0188,562.9844 L1048.0188,565.7031 Q1047.3938,565.125 1046.8,564.8516 Q1046.2063,564.5781 1045.5813,564.5781 Q1044.2375,564.5781 1043.55,565.6484 Q1042.8625,566.7188 1042.8625,568.8125 Q1042.8625,570.9063 1043.55,571.9766 Q1044.2375,573.0469 1045.5813,573.0469 Q1046.2063,573.0469 1046.8,572.7734 Q1047.3938,572.5 1048.0188,571.9219 L1048.0188,574.6406 Z "/><text fill="#000000" font-family="sans-serif" font-size="12" lengthAdjust="spacingAndGlyphs" textLength="138" x="1061.95" y="573.1543">CImpl_HelperExtended</text><line style="stroke: #A80036; stroke-width: 1.5;" x1="1018" x2="1215" y1="585" y2="585"/><line style="stroke: #A80036; stroke-width: 1.5;" x1="1018" x2="1215" y1="593" y2="593"/><ellipse cx="1028" cy="604" fill="#84BE84" rx="3" ry="3" style="stroke: #038048; stroke-width: 1.0;"/><text fill="#000000" font-family="sans-serif" font-size="11" lengthAdjust="spacingAndGlyphs" textLength="136" x="1037" y="607.2104">CImpl_HelperExtended()</text><ellipse cx="1028" cy="616.8047" fill="#84BE84" rx="3" ry="3" style="stroke: #038048; stroke-width: 1.0;"/><text fill="#000000" font-family="sans-serif" font-size="11" lengthAdjust="spacingAndGlyphs" textLength="173" x="1037" y="620.0151">virtual void virtFunc() override</text><!--MD5=[4d0301fc1de23dae2d36168d5052c656]
class CompositionDependency--><rect fill="#FEFECE" filter="url(#f18xi36wzq6zdc)" height="48" id="CompositionDependency" style="stroke: #A80036; stroke-width: 1.5;" width="182" x="799.5" y="566"/><ellipse cx="814.5" cy="582" fill="#ADD1B2" rx="11" ry="11" style="stroke: #A80036; stroke-width: 1.0;"/><path d="M817.4688,587.6406 Q816.8906,587.9375 816.25,588.0859 Q815.6094,588.2344 814.9063,588.2344 Q812.4063,588.2344 811.0859,586.5859 Q809.7656,584.9375 809.7656,581.8125 Q809.7656,578.6875 811.0859,577.0313 Q812.4063,575.375 814.9063,575.375 Q815.6094,575.375 816.2578,575.5313 Q816.9063,575.6875 817.4688,575.9844 L817.4688,578.7031 Q816.8438,578.125 816.25,577.8516 Q815.6563,577.5781 815.0313,577.5781 Q813.6875,577.5781 813,578.6484 Q812.3125,579.7188 812.3125,581.8125 Q812.3125,583.9063 813,584.9766 Q813.6875,586.0469 815.0313,586.0469 Q815.6563,586.0469 816.25,585.7734 Q816.8438,585.5 817.4688,584.9219 L817.4688,587.6406 Z "/><text fill="#000000" font-family="sans-serif" font-size="12" lengthAdjust="spacingAndGlyphs" textLength="150" x="828.5" y="586.1543">CompositionDependency</text><line style="stroke: #A80036; stroke-width: 1.5;" x1="800.5" x2="980.5" y1="598" y2="598"/><line style="stroke: #A80036; stroke-width: 1.5;" x1="800.5" x2="980.5" y1="606" y2="606"/><!--MD5=[b05a80e77c65e55cfba2e6d52fd61314]
class IDependency--><rect fill="#FEFECE" filter="url(#f18xi36wzq6zdc)" height="48" id="IDependency" style="stroke: #A80036; stroke-width: 1.5;" width="112" x="747.5" y="226.5"/><ellipse cx="762.5" cy="242.5" fill="#B4A7E5" rx="11" ry="11" style="stroke: #A80036; stroke-width: 1.0;"/><path d="M758.4219,238.2656 L758.4219,236.1094 L765.8125,236.1094 L765.8125,238.2656 L763.3438,238.2656 L763.3438,246.3438 L765.8125,246.3438 L765.8125,248.5 L758.4219,248.5 L758.4219,246.3438 L760.8906,246.3438 L760.8906,238.2656 L758.4219,238.2656 Z "/><text fill="#000000" font-family="sans-serif" font-size="12" font-style="italic" lengthAdjust="spacingAndGlyphs" textLength="80" x="776.5" y="246.6543">IDependency</text><line style="stroke: #A80036; stroke-width: 1.5;" x1="748.5" x2="858.5" y1="258.5" y2="258.5"/><line style="stroke: #A80036; stroke-width: 1.5;" x1="748.5" x2="858.5" y1="266.5" y2="266.5"/><!--MD5=[72a4d95edf5d9a5752e5471d46b9ea98]
class IInterfaceHelper--><rect fill="#FEFECE" filter="url(#f18xi36wzq6zdc)" height="48" id="IInterfaceHelper" style="stroke: #A80036; stroke-width: 1.5;" width="129" x="583" y="226.5"/><ellipse cx="598" cy="242.5" fill="#B4A7E5" rx="11" ry="11" style="stroke: #A80036; stroke-width: 1.0;"/><path d="M593.9219,238.2656 L593.9219,236.1094 L601.3125,236.1094 L601.3125,238.2656 L598.8438,238.2656 L598.8438,246.3438 L601.3125,246.3438 L601.3125,248.5 L593.9219,248.5 L593.9219,246.3438 L596.3906,246.3438 L596.3906,238.2656 L593.9219,238.2656 Z "/><text fill="#000000" font-family="sans-serif" font-size="12" font-style="italic" lengthAdjust="spacingAndGlyphs" textLength="97" x="612" y="246.6543">IInterfaceHelper</text><line style="stroke: #A80036; stroke-width: 1.5;" x1="584" x2="711" y1="258.5" y2="258.5"/><line style="stroke: #A80036; stroke-width: 1.5;" x1="584" x2="711" y1="266.5" y2="266.5"/><!--MD5=[e260b091d73f005fc9bbec51d6997402]
class CImpl_Test--><rect fill="#FEFECE" filter="url(#f18xi36wzq6zdc)" height="99.2188" id="CImpl_Test" style="stroke: #A80036; stroke-width: 1.5;" width="404" x="154.5" y="377"/><ellipse cx="319.25" cy="393" fill="#ADD1B2" rx="11" ry="11" style="stroke: #A80036; stroke-width: 1.0;"/><path d="M322.2188,398.6406 Q321.6406,398.9375 321,399.0859 Q320.3594,399.2344 319.6563,399.2344 Q317.1563,399.2344 315.8359,397.5859 Q314.5156,395.9375 314.5156,392.8125 Q314.5156,389.6875 315.8359,388.0313 Q317.1563,386.375 319.6563,386.375 Q320.3594,386.375 321.0078,386.5313 Q321.6563,386.6875 322.2188,386.9844 L322.2188,389.7031 Q321.5938,389.125 321,388.8516 Q320.4063,388.5781 319.7813,388.5781 Q318.4375,388.5781 317.75,389.6484 Q317.0625,390.7188 317.0625,392.8125 Q317.0625,394.9063 317.75,395.9766 Q318.4375,397.0469 319.7813,397.0469 Q320.4063,397.0469 321,396.7734 Q321.5938,396.5 322.2188,395.9219 L322.2188,398.6406 Z "/><text fill="#000000" font-family="sans-serif" font-size="12" lengthAdjust="spacingAndGlyphs" textLength="66" x="339.75" y="397.1543">CImpl_Test</text><line style="stroke: #A80036; stroke-width: 1.5;" x1="155.5" x2="557.5" y1="409" y2="409"/><line style="stroke: #A80036; stroke-width: 1.5;" x1="155.5" x2="557.5" y1="417" y2="417"/><ellipse cx="165.5" cy="428" fill="#84BE84" rx="3" ry="3" style="stroke: #038048; stroke-width: 1.0;"/><text fill="#000000" font-family="sans-serif" font-size="11" lengthAdjust="spacingAndGlyphs" textLength="70" x="174.5" y="431.2104">CImpl_Test()</text><ellipse cx="165.5" cy="440.8047" fill="#84BE84" rx="3" ry="3" style="stroke: #038048; stroke-width: 1.0;"/><text fill="#000000" font-family="sans-serif" font-size="11" lengthAdjust="spacingAndGlyphs" text-decoration="underline" textLength="126" x="174.5" y="444.0151">void myStaticMethod()</text><ellipse cx="165.5" cy="453.6094" fill="#84BE84" rx="3" ry="3" style="stroke: #038048; stroke-width: 1.0;"/><text fill="#000000" font-family="sans-serif" font-size="11" lengthAdjust="spacingAndGlyphs" textLength="378" x="174.5" y="456.8198">virtual void pureVirtFunc(const int&amp; val1, const int&amp; val2) override</text><ellipse cx="165.5" cy="466.4141" fill="#84BE84" rx="3" ry="3" style="stroke: #038048; stroke-width: 1.0;"/><text fill="#000000" font-family="sans-serif" font-size="11" lengthAdjust="spacingAndGlyphs" textLength="173" x="174.5" y="469.6245">virtual void virtFunc() override</text><!--MD5=[065ef51c0b83ac26c2e8b4ca504d0938]
class IInterface--><rect fill="#FEFECE" filter="url(#f18xi36wzq6zdc)" height="86.4141" id="IInterface" style="stroke: #A80036; stroke-width: 1.5;" width="376" x="179.5" y="33"/><ellipse cx="334.25" cy="49" fill="#B4A7E5" rx="11" ry="11" style="stroke: #A80036; stroke-width: 1.0;"/><path d="M330.1719,44.7656 L330.1719,42.6094 L337.5625,42.6094 L337.5625,44.7656 L335.0938,44.7656 L335.0938,52.8438 L337.5625,52.8438 L337.5625,55 L330.1719,55 L330.1719,52.8438 L332.6406,52.8438 L332.6406,44.7656 L330.1719,44.7656 Z "/><text fill="#000000" font-family="sans-serif" font-size="12" font-style="italic" lengthAdjust="spacingAndGlyphs" textLength="58" x="354.75" y="53.1543">IInterface</text><line style="stroke: #A80036; stroke-width: 1.5;" x1="180.5" x2="554.5" y1="65" y2="65"/><line style="stroke: #A80036; stroke-width: 1.5;" x1="180.5" x2="554.5" y1="73" y2="73"/><ellipse cx="190.5" cy="84" fill="#84BE84" rx="3" ry="3" style="stroke: #038048; stroke-width: 1.0;"/><text fill="#000000" font-family="sans-serif" font-size="11" font-style="italic" lengthAdjust="spacingAndGlyphs" textLength="350" x="199.5" y="87.2104">virtual void pureVirtFunc(const int&amp; val1, const int&amp; val2) = 0</text><ellipse cx="190.5" cy="96.8047" fill="#84BE84" rx="3" ry="3" style="stroke: #038048; stroke-width: 1.0;"/><text fill="#000000" font-family="sans-serif" font-size="11" lengthAdjust="spacingAndGlyphs" textLength="121" x="199.5" y="100.0151">virtual void virtFunc()</text><ellipse cx="190.5" cy="109.6094" fill="#84BE84" rx="3" ry="3" style="stroke: #038048; stroke-width: 1.0;"/><text fill="#000000" font-family="sans-serif" font-size="11" lengthAdjust="spacingAndGlyphs" textLength="110" x="199.5" y="112.8198">virtual ~IInterface()</text><!--MD5=[2d4c8ec6db4049c384bcbe96911a10c1]
class UndeclaredClass--><rect fill="#FEFECE" filter="url(#f18xi36wzq6zdc)" height="48" id="UndeclaredClass" style="stroke: #A80036; stroke-width: 1.5;" width="131" x="7" y="226.5"/><ellipse cx="22" cy="242.5" fill="#ADD1B2" rx="11" ry="11" style="stroke: #A80036; stroke-width: 1.0;"/><path d="M24.9688,248.1406 Q24.3906,248.4375 23.75,248.5859 Q23.1094,248.7344 22.4063,248.7344 Q19.9063,248.7344 18.5859,247.0859 Q17.2656,245.4375 17.2656,242.3125 Q17.2656,239.1875 18.5859,237.5313 Q19.9063,235.875 22.4063,235.875 Q23.1094,235.875 23.7578,236.0313 Q24.4063,236.1875 24.9688,236.4844 L24.9688,239.2031 Q24.3438,238.625 23.75,238.3516 Q23.1563,238.0781 22.5313,238.0781 Q21.1875,238.0781 20.5,239.1484 Q19.8125,240.2188 19.8125,242.3125 Q19.8125,244.4063 20.5,245.4766 Q21.1875,246.5469 22.5313,246.5469 Q23.1563,246.5469 23.75,246.2734 Q24.3438,246 24.9688,245.4219 L24.9688,248.1406 Z "/><text fill="#000000" font-family="sans-serif" font-size="12" lengthAdjust="spacingAndGlyphs" textLength="99" x="36" y="246.6543">UndeclaredClass</text><line style="stroke: #A80036; stroke-width: 1.5;" x1="8" x2="137" y1="258.5" y2="258.5"/><line style="stroke: #A80036; stroke-width: 1.5;" x1="8" x2="137" y1="266.5" y2="266.5"/><!--MD5=[00ad0a7b5df3cc4522c62a4714efeb8a]
reverse link IDependency to AggregationDependency--><path d="M784.1997,292.815 C773.2859,317.2421 759.6382,348.649 748.5,377 C721.9076,444.6883 694.474,526.1189 681.3808,565.836 " fill="none" id="IDependency&lt;-AggregationDependency" style="stroke: #A80036; stroke-width: 1.0;"/><polygon fill="none" points="777.838,289.894,792.4373,274.5362,790.6017,295.6462,777.838,289.894" style="stroke: #A80036; stroke-width: 1.0;"/><text fill="#000000" font-family="sans-serif" font-size="13" lengthAdjust="spacingAndGlyphs" textLength="78" x="749.5" y="431.0669">implements</text><!--MD5=[49a933f05655fd6c65b85bc3dea21341]
reverse link IInterface to CImpl_Helper--><path d="M575.4064,108.8512 C668.5234,125.3798 779.253,147.5532 877.5,174 C905.9865,181.6682 936.1011,191.2113 964.5799,200.9287 " fill="none" id="IInterface&lt;-CImpl_Helper" style="stroke: #A80036; stroke-width: 1.0;"/><polygon fill="none" points="573.9981,115.7111,555.5101,105.3575,576.4194,101.9221,573.9981,115.7111" style="stroke: #A80036; stroke-width: 1.0;"/><text fill="#000000" font-family="sans-serif" font-size="13" lengthAdjust="spacingAndGlyphs" textLength="78" x="837.5" y="162.0669">implements</text><!--MD5=[02e933052e16269ac8dac39619616c49]
reverse link CImpl_Helper to CImpl_HelperExtended--><path d="M1100.6188,320.4174 C1104.7701,390.8851 1111.0189,496.9578 1114.3035,552.7148 " fill="none" id="CImpl_Helper&lt;-CImpl_HelperExtended" style="stroke: #A80036; stroke-width: 1.0;"/><polygon fill="none" points="1093.618,320.6069,1099.4296,300.2298,1107.5937,319.7835,1093.618,320.6069" style="stroke: #A80036; stroke-width: 1.0;"/><text fill="#000000" font-family="sans-serif" font-size="13" lengthAdjust="spacingAndGlyphs" textLength="52" x="1110.5" y="431.0669">extends</text><!--MD5=[252724564e154428e0787fce12d0b3ee]
reverse link IDependency to CompositionDependency--><path d="M814.7227,294.2943 C833.275,366.6908 869.7337,508.9639 884.2863,565.7521 " fill="none" id="IDependency&lt;-CompositionDependency" style="stroke: #A80036; stroke-width: 1.0;"/><polygon fill="none" points="807.871,295.7555,809.6871,274.6438,821.4328,292.2801,807.871,295.7555" style="stroke: #A80036; stroke-width: 1.0;"/><text fill="#000000" font-family="sans-serif" font-size="13" lengthAdjust="spacingAndGlyphs" textLength="78" x="863.5" y="431.0669">implements</text><!--MD5=[7eccc02d4f96a003130187b362b4bf23]
reverse link IInterface to CImpl_Test--><path d="M365.5049,139.5716 C363.366,207.725 360.0148,314.5041 358.0604,376.7786 " fill="none" id="IInterface&lt;-CImpl_Test" style="stroke: #A80036; stroke-width: 1.0;"/><polygon fill="none" points="358.5161,139.1003,366.1402,119.3297,372.5092,139.5395,358.5161,139.1003" style="stroke: #A80036; stroke-width: 1.0;"/><text fill="#000000" font-family="sans-serif" font-size="13" lengthAdjust="spacingAndGlyphs" textLength="78" x="364.5" y="255.0669">implements</text><!--MD5=[882cbdf24b1bf45a4205af24ab85162a]
reverse link IInterfaceHelper to CImpl_Test--><path d="M596.0958,286.012 C588.8954,290.7937 581.5487,295.5727 574.5,300 C532.5356,326.3579 485.0367,354.1516 445.1126,376.9525 " fill="none" id="IInterfaceHelper&lt;-CImpl_Test" style="stroke: #A80036; stroke-width: 1.0;"/><polygon fill="none" points="592.4273,280.043,612.9246,274.6708,600.2513,291.6528,592.4273,280.043" style="stroke: #A80036; stroke-width: 1.0;"/><text fill="#000000" font-family="sans-serif" font-size="13" lengthAdjust="spacingAndGlyphs" textLength="78" x="521.5" y="343.0669">implements</text><!--MD5=[228d59f7b257578b00fbffb66e13b5b5]
reverse link UndeclaredClass to CImpl_Test--><path d="M122.0238,286.2681 C128.8442,290.9739 135.8043,295.6639 142.5,300 C183.4349,326.5094 229.9277,354.2631 269.0959,376.9977 " fill="none" id="UndeclaredClass&lt;-CImpl_Test" style="stroke: #A80036; stroke-width: 1.0;"/><polygon fill="none" points="117.936,291.9511,105.588,274.7311,125.9794,280.4923,117.936,291.9511" style="stroke: #A80036; stroke-width: 1.0;"/><text fill="#000000" font-family="sans-serif" font-size="13" lengthAdjust="spacingAndGlyphs" textLength="52" x="218.5" y="343.0669">extends</text><!--MD5=[346d640075923864e6abf7c9c844d9ef]
reverse link AggregationDependency to ExternalDependency--><path d="M703.5363,624.0888 C726.4749,650.1224 757.5302,685.3676 778.021,708.623 " fill="none" id="AggregationDependency&lt;-ExternalDependency" style="stroke: #A80036; stroke-width: 1.0;"/><polygon fill="#FFFFFF" points="694.8742,614.258,695.8396,621.4042,702.8074,623.2616,701.842,616.1154,694.8742,614.258" style="stroke: #A80036; stroke-width: 1.0;"/><text fill="#000000" font-family="sans-serif" font-size="13" lengthAdjust="spacingAndGlyphs" textLength="30" x="744.5" y="670.0669">uses</text><text fill="#000000" font-family="sans-serif" font-size="13" lengthAdjust="spacingAndGlyphs" textLength="8" x="691.1092" y="634.0821">1</text><text fill="#000000" font-family="sans-serif" font-size="13" lengthAdjust="spacingAndGlyphs" textLength="8" x="763.8105" y="697.9361">1</text><!--MD5=[6955ff48566accb2327d19036f8f014c]
reverse link CompositionDependency to ExternalDependency--><path d="M867.922,625.4797 C851.4488,651.3662 829.5496,685.7792 815.0126,708.623 " fill="none" id="CompositionDependency&lt;-ExternalDependency" style="stroke: #A80036; stroke-width: 1.0;"/><polygon fill="#FFFFFF" points="875.0631,614.258,868.4672,617.1724,868.6206,624.3819,875.2165,621.4675,875.0631,614.258" style="stroke: #A80036; stroke-width: 1.0;"/><text fill="#000000" font-family="sans-serif" font-size="13" lengthAdjust="spacingAndGlyphs" textLength="30" x="848.5" y="670.0669">uses</text><text fill="#000000" font-family="sans-serif" font-size="13" lengthAdjust="spacingAndGlyphs" textLength="8" x="862.3254" y="634.0821">1</text><text fill="#000000" font-family="sans-serif" font-size="13" lengthAdjust="spacingAndGlyphs" textLength="8" x="809.8188" y="697.9361">1</text><!--MD5=[cce8984bb659fda437a08aec58c975f6]
reverse link CImpl_Test to AggregationDependency--><path d="M427.9007,483.8685 C447.2028,497.8019 468.5631,511.8744 489.5,523 C521.9226,540.229 559.7367,554.8456 592.6227,565.9876 " fill="none" id="CImpl_Test&lt;-AggregationDependency" style="stroke: #A80036; stroke-width: 1.0;"/><polygon fill="#FFFFFF" points="417.4048,476.1617,419.8736,482.937,427.0773,483.264,424.6085,476.4887,417.4048,476.1617" style="stroke: #A80036; stroke-width: 1.0;"/><text fill="#000000" font-family="sans-serif" font-size="13" lengthAdjust="spacingAndGlyphs" textLength="30" x="490.5" y="519.0669">uses</text><text fill="#000000" font-family="sans-serif" font-size="13" lengthAdjust="spacingAndGlyphs" textLength="8" x="417.407" y="496.2609">1</text><text fill="#000000" font-family="sans-serif" font-size="13" lengthAdjust="spacingAndGlyphs" textLength="8" x="566.0558" y="556.1757">1</text><!--MD5=[e13d0d88ff2fc99675849ca7a1c39849]
reverse link CImpl_Test to CompositionDependency--><path d="M542.1622,479.8182 C617.0322,501.7911 704.0869,527.9376 782.5,553 C795.2433,557.073 808.775,561.5705 821.7933,565.9854 " fill="none" id="CImpl_Test&lt;-CompositionDependency" style="stroke: #A80036; stroke-width: 1.0;"/><polygon fill="#A80036" points="529.2945,476.0476,533.9275,481.5734,540.8103,479.4221,536.1772,473.8963,529.2945,476.0476" style="stroke: #A80036; stroke-width: 1.0;"/><text fill="#000000" font-family="sans-serif" font-size="13" lengthAdjust="spacingAndGlyphs" textLength="55" x="678.5" y="519.0669">contains</text><text fill="#000000" font-family="sans-serif" font-size="13" lengthAdjust="spacingAndGlyphs" textLength="8" x="545.0312" y="496.1308">1</text><text fill="#000000" font-family="sans-serif" font-size="13" lengthAdjust="spacingAndGlyphs" textLength="8" x="795.1622" y="554.9937">1</text><!--MD5=[f6775215eb1ec74f6666845e3878b584]
@startuml
package "test_external" #DDDDDD
{

class "ExternalDependency"
{
}

}

package "test_helper" #DDDDDD
{

class "AggregationDependency"
{
}

class "CImpl_Helper"
{
    + CImpl_Helper()
    + {static} void myStaticMethod()
    + virtual void pureVirtFunc(const int& val1, const int& val2) override
    + virtual void virtFunc() override
}

class "CImpl_HelperExtended"
{
    + CImpl_HelperExtended()
    + virtual void virtFunc() override
}

class "CompositionDependency"
{
}

interface "IDependency"
{
}

interface "IInterfaceHelper"
{
}

}

package "test_main" #DDDDDD
{

class "CImpl_Test"
{
    + CImpl_Test()
    + {static} void myStaticMethod()
    + virtual void pureVirtFunc(const int& val1, const int& val2) override
    + virtual void virtFunc() override
}

interface "IInterface"
{
    + {abstract} virtual void pureVirtFunc(const int& val1, const int& val2) = 0
    + virtual void virtFunc()
    + virtual ~IInterface()
}

}

'====================Inheritance section====================
IDependency <|- - AggregationDependency : implements
IInterface <|- - CImpl_Helper : implements
CImpl_Helper <|- - CImpl_HelperExtended : extends
IDependency <|- - CompositionDependency : implements
IInterface <|- - CImpl_Test : implements
IInterfaceHelper <|- - CImpl_Test : implements
UndeclaredClass <|- - CImpl_Test : extends

'====================Dependencies section====================
AggregationDependency "1" o- - "1" ExternalDependency : uses
CompositionDependency "1" o- - "1" ExternalDependency : uses
CImpl_Test "1" o- - "1" AggregationDependency : uses
CImpl_Test "1" *- - "1" CompositionDependency : contains
@enduml

@startuml
package "test_external" #DDDDDD
{

class "ExternalDependency"
{
}

}

package "test_helper" #DDDDDD
{

class "AggregationDependency"
{
}

class "CImpl_Helper"
{
    + CImpl_Helper()
    + {static} void myStaticMethod()
    + virtual void pureVirtFunc(const int& val1, const int& val2) override
    + virtual void virtFunc() override
}

class "CImpl_HelperExtended"
{
    + CImpl_HelperExtended()
    + virtual void virtFunc() override
}

class "CompositionDependency"
{
}

interface "IDependency"
{
}

interface "IInterfaceHelper"
{
}

}

package "test_main" #DDDDDD
{

class "CImpl_Test"
{
    + CImpl_Test()
    + {static} void myStaticMethod()
    + virtual void pureVirtFunc(const int& val1, const int& val2) override
    + virtual void virtFunc() override
}

interface "IInterface"
{
    + {abstract} virtual void pureVirtFunc(const int& val1, const int& val2) = 0
    + virtual void virtFunc()
    + virtual ~IInterface()
}

}

IDependency <|- - AggregationDependency : implements
IInterface <|- - CImpl_Helper : implements
CImpl_Helper <|- - CImpl_HelperExtended : extends
IDependency <|- - CompositionDependency : implements
IInterface <|- - CImpl_Test : implements
IInterfaceHelper <|- - CImpl_Test : implements
UndeclaredClass <|- - CImpl_Test : extends

AggregationDependency "1" o- - "1" ExternalDependency : uses
CompositionDependency "1" o- - "1" ExternalDependency : uses
CImpl_Test "1" o- - "1" AggregationDependency : uses
CImpl_Test "1" *- - "1" CompositionDependency : contains
@enduml

PlantUML version 1.2020.15(Sun Jun 28 11:39:45 UTC 2020)
(GPL source distribution)
Java Runtime: OpenJDK Runtime Environment
JVM: OpenJDK 64-Bit Server VM
Default Encoding: UTF-8
Language: en
Country: US
--></g></svg>